<?xml version="1.0" encoding="UTF-8" standalone="no"?>
<svg
   xmlns:dc="http://purl.org/dc/elements/1.1/"
   xmlns:cc="http://creativecommons.org/ns#"
   xmlns:rdf="http://www.w3.org/1999/02/22-rdf-syntax-ns#"
   xmlns:svg="http://www.w3.org/2000/svg"
   xmlns="http://www.w3.org/2000/svg"
   xmlns:sodipodi="http://sodipodi.sourceforge.net/DTD/sodipodi-0.dtd"
   xmlns:inkscape="http://www.inkscape.org/namespaces/inkscape"
   height="166.17969"
   width="175.00977"
   version="1.1"
   viewBox="0 0 175.00977 166.17969"
   id="svg6"
   sodipodi:docname="arch.svg"
   inkscape:version="1.0.2 (e86c870879, 2021-01-15)">
  <metadata
     id="metadata12">
    <rdf:RDF>
      <cc:Work
         rdf:about="">
        <dc:format>image/svg+xml</dc:format>
        <dc:type
           rdf:resource="http://purl.org/dc/dcmitype/StillImage" />
        <dc:title></dc:title>
      </cc:Work>
    </rdf:RDF>
  </metadata>
  <defs
     id="defs10" />
  <sodipodi:namedview
     pagecolor="#ffffff"
     bordercolor="#666666"
     borderopacity="1"
     objecttolerance="10"
     gridtolerance="10"
     guidetolerance="10"
     inkscape:pageopacity="0"
     inkscape:pageshadow="2"
     inkscape:window-width="2942"
     inkscape:window-height="1381"
     id="namedview8"
     showgrid="false"
     fit-margin-top="0"
     fit-margin-left="0"
     fit-margin-right="0"
     fit-margin-bottom="0"
     inkscape:zoom="2.9296209"
     inkscape:cx="261.62231"
     inkscape:cy="82.869141"
     inkscape:window-x="0"
     inkscape:window-y="49"
     inkscape:window-maximized="0"
     inkscape:current-layer="svg6" />
  <path
     id="path4"
     d="m 83.058594,0 c -7.395497,18.130526 -11.85773,29.993884 -20.091797,47.587891 5.049,5.352 11.245547,11.583047 21.310547,18.623047 -10.82,-4.453 -18.199797,-8.9245 -23.716797,-13.5625 C 50.021547,74.640438 33.509,105.96969 0,166.17969 c 26.338,-15.2 46.752297,-24.58039 65.779297,-28.15039 -0.817,-3.52 -1.281,-7.3193 -1.25,-11.2793 l 0.03125,-0.85156 c 0.418,-16.87 9.19575,-29.843893 19.59375,-28.962893 10.398,0.881 18.478593,15.284293 18.058593,32.154293 -0.07,3.18 -0.43055,6.2286 -1.06055,9.0586 18.82,3.68 39.02,13.03125 65,28.03125 -5.12,-9.43 -9.70054,-17.93125 -14.06054,-26.03125 -6.88,-5.33 -14.04946,-12.2693 -28.68946,-19.7793 10.06,2.62 17.25891,5.63 22.87891,9 C 101.88125,46.701141 98.288594,35.719 83.058594,0 Z M 165.2793,146.19336 v 0.61133 h 1.70117 v 4.54883 h 0.67969 v -4.54883 h 1.70898 v -0.61133 z m 4.80078,0 v 5.16016 h 0.66015 v -4.38868 l 1.5,4.38868 h 0.60938 l 1.5,-4.32032 v 4.32032 h 0.66016 v -5.16016 h -0.91993 l -1.23046,3.58984 c -0.13001,0.37 -0.2193,0.64008 -0.2793,0.83008 -0.05,-0.17 -0.13,-0.41976 -0.25,-0.75976 l -1.2207,-3.66016 z"
     style="fill:#1793d1;fill-opacity:1" />
</svg>
