<?xml version="1.0" encoding="UTF-8" standalone="no"?>
<svg
   xmlns:dc="http://purl.org/dc/elements/1.1/"
   xmlns:cc="http://creativecommons.org/ns#"
   xmlns:rdf="http://www.w3.org/1999/02/22-rdf-syntax-ns#"
   xmlns:svg="http://www.w3.org/2000/svg"
   xmlns="http://www.w3.org/2000/svg"
   xmlns:sodipodi="http://sodipodi.sourceforge.net/DTD/sodipodi-0.dtd"
   xmlns:inkscape="http://www.inkscape.org/namespaces/inkscape"
   inkscape:version="1.0.2 (e86c870879, 2021-01-15)"
   sodipodi:docname="fedora.svg"
   version="1.1"
   viewBox="0 0 204.72851 200.89062"
   id="svg10"
   width="204.72852"
   height="200.89062">
  <defs
     id="defs12" />
  <title
     id="title2">Fedora logo (2021)</title>
  <metadata
     id="metadata4">
    <rdf:RDF>
      <cc:Work
         rdf:about="">
        <dc:format>image/svg+xml</dc:format>
        <dc:type
           rdf:resource="http://purl.org/dc/dcmitype/StillImage" />
        <dc:title>Fedora logo (2021)</dc:title>
      </cc:Work>
    </rdf:RDF>
  </metadata>
  <sodipodi:namedview
     bordercolor="#666666"
     borderopacity="1"
     gridtolerance="10"
     guidetolerance="10"
     inkscape:current-layer="svg10"
     inkscape:cx="204.68439"
     inkscape:cy="208.79702"
     inkscape:document-rotation="0"
     inkscape:pageopacity="0"
     inkscape:pageshadow="2"
     inkscape:window-height="2074"
     inkscape:window-maximized="1"
     inkscape:window-width="3840"
     inkscape:window-x="0"
     inkscape:window-y="49"
     inkscape:zoom="1.7718846"
     objecttolerance="10"
     pagecolor="#ffffff"
     showgrid="false"
     id="namedview6"
     fit-margin-top="0"
     fit-margin-left="0"
     fit-margin-right="0"
     fit-margin-bottom="0" />
  <path
     id="path8"
     style="fill:#51a2da"
     d="M 102.41797,0 C 45.887968,0 0.1175781,44.930391 0.0175782,100.40039 H 2e-7 v 77.71875 h 0.017578 c 0.02713,12.58 10.4317178,22.77149 23.2617188,22.77149 H 102.42774 C 158.96773,200.85516 204.72852,155.93024 204.72852,100.49024 204.7286,45.020234 158.90813,0.0898438 102.32813,0.0898437 Z m 20.8125,41.310546 -0.0117,0.03125 c 17.19,0 33.41992,12.910703 33.41992,30.720704 0,1.652 0.01,3.304734 -0.26562,5.177734 -0.4763,4.738 -4.89027,8.14261 -9.69727,7.474609 -4.807,-0.675799 -8.07064,-5.15389 -7.18164,-9.83789 0.0815,-0.534599 0.11133,-1.373407 0.11133,-2.816407 0,-10.099999 -8.42563,-14 -16.39063,-14 -7.963,0 -15.13843,6.568 -15.14843,14 0.1376,8.593001 0,17.11922 0,25.699222 l 14.77929,-0.10742 c 11.54,-0.2344 11.66972,16.810462 0.13282,16.730462 l -14.91018,0.10743 c -0.0361,6.912 0.0538,5.66157 0.0176,9.14257 0,0 0.12634,8.45533 -0.13086,14.86133 -1.784,18.82 -18.120002,33.85938 -37.750002,33.85938 -20.81,0 -37.951172,-16.68063 -37.951172,-37.14063 0.6248,-21.04 17.73125,-37.588432 39.28125,-37.398432 l 12.019531,-0.0898 v 16.699222 l -12.019531,0.10938 h -0.06445 c -11.84,0.3437 -21.989688,8.23192 -22.179688,20.66992 0,11.33 9.333922,20.41015 20.919922,20.41015 11.57,0 20.830078,-8.25762 20.830078,-20.39062 l -0.01758,-63.250003 c 0.006,-1.174 0.04443,-2.107344 0.175781,-3.402344 1.953,-15.47 16.061251,-27.259766 32.031251,-27.259766 z" />
</svg>
